<mxfile host="app.diagrams.net" modified="2024-05-23T10:40:20.836Z" agent="Mozilla/5.0 (Macintosh; Intel Mac OS X 10_15_7) AppleWebKit/537.36 (KHTML, like Gecko) Chrome/124.0.0.0 Safari/537.36" etag="re_dPd-ssUJTyAQKGAzr" version="24.2.5" type="github">
  <diagram name="Page-1" id="c7488fd3-1785-93aa-aadb-54a6760d102a">
    <mxGraphModel dx="1073" dy="616" grid="1" gridSize="8" guides="1" tooltips="1" connect="1" arrows="1" fold="1" page="1" pageScale="1" pageWidth="1100" pageHeight="850" background="none" math="0" shadow="0">
      <root>
        <mxCell id="0" />
        <mxCell id="1" parent="0" />
        <mxCell id="2b4e8129b02d487f-1" value="Flujo de Informe de viaje" style="swimlane;html=1;childLayout=stackLayout;horizontal=1;startSize=20;horizontalStack=0;rounded=0;shadow=0;labelBackgroundColor=none;strokeWidth=1;fontFamily=Verdana;fontSize=8;align=center;" parent="1" vertex="1">
          <mxGeometry x="120" y="104" width="1952" height="739.15" as="geometry">
            <mxRectangle x="180" y="70" width="100" height="20" as="alternateBounds" />
          </mxGeometry>
        </mxCell>
        <mxCell id="2b4e8129b02d487f-3" value="Cocha" style="swimlane;html=1;startSize=20;horizontal=0;" parent="2b4e8129b02d487f-1" vertex="1">
          <mxGeometry y="20" width="1952" height="340.01" as="geometry">
            <mxRectangle y="20" width="816" height="30" as="alternateBounds" />
          </mxGeometry>
        </mxCell>
        <mxCell id="0bKL7lzvlcCsgMvsiAlR-79" value="" style="edgeStyle=none;curved=1;rounded=0;orthogonalLoop=1;jettySize=auto;html=1;fontSize=12;startSize=8;endSize=8;" edge="1" parent="2b4e8129b02d487f-3" source="0bKL7lzvlcCsgMvsiAlR-56" target="0bKL7lzvlcCsgMvsiAlR-78">
          <mxGeometry relative="1" as="geometry" />
        </mxCell>
        <mxCell id="0bKL7lzvlcCsgMvsiAlR-56" value="EP2: Creación de Viaje mediante plataforma Cocha con usuario activado" style="whiteSpace=wrap;html=1;fontSize=8;fontFamily=Verdana;rounded=1;shadow=0;labelBackgroundColor=none;strokeWidth=1;arcSize=0;" vertex="1" parent="2b4e8129b02d487f-3">
          <mxGeometry x="352" y="100.005" width="120" height="60" as="geometry" />
        </mxCell>
        <mxCell id="0bKL7lzvlcCsgMvsiAlR-66" value="EP a disponibilizar" style="swimlane;fontStyle=0;childLayout=stackLayout;horizontal=1;startSize=30;horizontalStack=0;resizeParent=1;resizeParentMax=0;resizeLast=0;collapsible=1;marginBottom=0;whiteSpace=wrap;html=1;" vertex="1" parent="2b4e8129b02d487f-3">
          <mxGeometry x="24" width="280" height="80" as="geometry" />
        </mxCell>
        <mxCell id="0bKL7lzvlcCsgMvsiAlR-67" value="- EP1: Activar/desactivar usuario desde Rindegastos&lt;div&gt;- EP3? Vuelta de info con el status actualizado (?)&lt;/div&gt;" style="text;strokeColor=none;fillColor=none;align=left;verticalAlign=middle;spacingLeft=4;spacingRight=4;overflow=hidden;points=[[0,0.5],[1,0.5]];portConstraint=eastwest;rotatable=0;whiteSpace=wrap;html=1;" vertex="1" parent="0bKL7lzvlcCsgMvsiAlR-66">
          <mxGeometry y="30" width="280" height="50" as="geometry" />
        </mxCell>
        <mxCell id="0bKL7lzvlcCsgMvsiAlR-78" value="Se crea un Informe en Rindegastos asociado al viaje y sus detalles" style="whiteSpace=wrap;html=1;fontSize=8;fontFamily=Verdana;rounded=1;shadow=0;labelBackgroundColor=none;strokeWidth=1;arcSize=0;" vertex="1" parent="2b4e8129b02d487f-3">
          <mxGeometry x="520" y="100.005" width="120" height="60" as="geometry" />
        </mxCell>
        <mxCell id="0bKL7lzvlcCsgMvsiAlR-151" value="EP3: Se obtiene el status y detalle del informe Cerrado" style="whiteSpace=wrap;html=1;fontSize=8;fontFamily=Verdana;rounded=1;shadow=0;labelBackgroundColor=none;strokeWidth=1;arcSize=0;" vertex="1" parent="2b4e8129b02d487f-3">
          <mxGeometry x="1072" y="99.99999999999999" width="120" height="60" as="geometry" />
        </mxCell>
        <mxCell id="0bKL7lzvlcCsgMvsiAlR-57" value="" style="edgeStyle=none;curved=1;rounded=0;orthogonalLoop=1;jettySize=auto;html=1;fontSize=12;startSize=8;endSize=8;" edge="1" parent="2b4e8129b02d487f-1" source="0bKL7lzvlcCsgMvsiAlR-47" target="0bKL7lzvlcCsgMvsiAlR-56">
          <mxGeometry relative="1" as="geometry" />
        </mxCell>
        <mxCell id="0bKL7lzvlcCsgMvsiAlR-58" value="Si" style="edgeLabel;html=1;align=center;verticalAlign=middle;resizable=0;points=[];fontSize=12;" vertex="1" connectable="0" parent="0bKL7lzvlcCsgMvsiAlR-57">
          <mxGeometry x="0.0523" y="-2" relative="1" as="geometry">
            <mxPoint as="offset" />
          </mxGeometry>
        </mxCell>
        <mxCell id="0bKL7lzvlcCsgMvsiAlR-82" value="" style="edgeStyle=none;curved=1;rounded=0;orthogonalLoop=1;jettySize=auto;html=1;fontSize=12;startSize=8;endSize=8;entryX=0.5;entryY=0;entryDx=0;entryDy=0;" edge="1" parent="2b4e8129b02d487f-1" source="0bKL7lzvlcCsgMvsiAlR-78" target="0bKL7lzvlcCsgMvsiAlR-83">
          <mxGeometry relative="1" as="geometry">
            <mxPoint x="580" y="409.135" as="targetPoint" />
          </mxGeometry>
        </mxCell>
        <mxCell id="2b4e8129b02d487f-2" value="Rindegastos" style="swimlane;html=1;startSize=20;horizontal=0;" parent="2b4e8129b02d487f-1" vertex="1">
          <mxGeometry y="360.01" width="1952" height="363.16" as="geometry">
            <mxRectangle y="288" width="816" height="30" as="alternateBounds" />
          </mxGeometry>
        </mxCell>
        <mxCell id="0bKL7lzvlcCsgMvsiAlR-36" value="" style="edgeStyle=none;curved=1;rounded=0;orthogonalLoop=1;jettySize=auto;html=1;fontSize=12;startSize=8;endSize=8;" edge="1" parent="2b4e8129b02d487f-2" source="2b4e8129b02d487f-6" target="0bKL7lzvlcCsgMvsiAlR-35">
          <mxGeometry relative="1" as="geometry" />
        </mxCell>
        <mxCell id="0bKL7lzvlcCsgMvsiAlR-48" value="" style="edgeStyle=none;curved=1;rounded=0;orthogonalLoop=1;jettySize=auto;html=1;fontSize=12;startSize=8;endSize=8;" edge="1" parent="2b4e8129b02d487f-2" source="2b4e8129b02d487f-6" target="0bKL7lzvlcCsgMvsiAlR-47">
          <mxGeometry relative="1" as="geometry" />
        </mxCell>
        <mxCell id="2b4e8129b02d487f-6" value="Utilizar EP1 para actualizar datos del usuario y activar Flag" style="rounded=1;whiteSpace=wrap;html=1;shadow=0;labelBackgroundColor=none;strokeWidth=1;fontFamily=Verdana;fontSize=8;align=center;arcSize=0;" parent="2b4e8129b02d487f-2" vertex="1">
          <mxGeometry x="170" y="50.88000000000001" width="80" height="58.25" as="geometry" />
        </mxCell>
        <mxCell id="0bKL7lzvlcCsgMvsiAlR-35" value="Generar Log" style="shape=document;whiteSpace=wrap;html=1;boundedLbl=1;fontSize=8;fontFamily=Verdana;rounded=1;shadow=0;labelBackgroundColor=none;strokeWidth=1;" vertex="1" parent="2b4e8129b02d487f-2">
          <mxGeometry x="116" y="146.88" width="92" height="31.38" as="geometry" />
        </mxCell>
        <mxCell id="0bKL7lzvlcCsgMvsiAlR-50" value="" style="edgeStyle=none;curved=1;rounded=0;orthogonalLoop=1;jettySize=auto;html=1;fontSize=12;startSize=8;endSize=8;entryX=0.5;entryY=0;entryDx=0;entryDy=0;" edge="1" parent="2b4e8129b02d487f-2" source="0bKL7lzvlcCsgMvsiAlR-47" target="0bKL7lzvlcCsgMvsiAlR-49">
          <mxGeometry relative="1" as="geometry">
            <mxPoint x="412" y="162.88" as="targetPoint" />
          </mxGeometry>
        </mxCell>
        <mxCell id="0bKL7lzvlcCsgMvsiAlR-55" value="No" style="edgeLabel;html=1;align=center;verticalAlign=middle;resizable=0;points=[];fontSize=12;" vertex="1" connectable="0" parent="0bKL7lzvlcCsgMvsiAlR-50">
          <mxGeometry x="-0.4437" y="2" relative="1" as="geometry">
            <mxPoint as="offset" />
          </mxGeometry>
        </mxCell>
        <mxCell id="0bKL7lzvlcCsgMvsiAlR-47" value="Activacion de usuario?" style="rhombus;whiteSpace=wrap;html=1;fontSize=8;fontFamily=Verdana;rounded=1;shadow=0;labelBackgroundColor=none;strokeWidth=1;arcSize=16;" vertex="1" parent="2b4e8129b02d487f-2">
          <mxGeometry x="372" y="40.00500000000001" width="80" height="80" as="geometry" />
        </mxCell>
        <mxCell id="0bKL7lzvlcCsgMvsiAlR-53" style="edgeStyle=none;curved=1;rounded=0;orthogonalLoop=1;jettySize=auto;html=1;exitX=0;exitY=0.5;exitDx=0;exitDy=0;entryX=1;entryY=1;entryDx=0;entryDy=0;fontSize=12;startSize=8;endSize=8;" edge="1" parent="2b4e8129b02d487f-2" source="0bKL7lzvlcCsgMvsiAlR-49" target="2b4e8129b02d487f-6">
          <mxGeometry relative="1" as="geometry">
            <mxPoint x="350" y="178.88" as="sourcePoint" />
            <Array as="points">
              <mxPoint x="296" y="184" />
              <mxPoint x="252" y="184" />
              <mxPoint x="252" y="146.88" />
              <mxPoint x="252" y="114.88000000000001" />
            </Array>
          </mxGeometry>
        </mxCell>
        <mxCell id="0bKL7lzvlcCsgMvsiAlR-49" value="Manejo de errores y reintento del proceso" style="whiteSpace=wrap;html=1;fontSize=8;fontFamily=Verdana;rounded=1;shadow=0;labelBackgroundColor=none;strokeWidth=1;arcSize=16;" vertex="1" parent="2b4e8129b02d487f-2">
          <mxGeometry x="350" y="168" width="124" height="32" as="geometry" />
        </mxCell>
        <mxCell id="0bKL7lzvlcCsgMvsiAlR-52" style="edgeStyle=none;curved=1;rounded=0;orthogonalLoop=1;jettySize=auto;html=1;exitX=0;exitY=1;exitDx=0;exitDy=0;fontSize=12;startSize=8;endSize=8;" edge="1" parent="2b4e8129b02d487f-2" source="0bKL7lzvlcCsgMvsiAlR-49" target="0bKL7lzvlcCsgMvsiAlR-49">
          <mxGeometry relative="1" as="geometry" />
        </mxCell>
        <mxCell id="0bKL7lzvlcCsgMvsiAlR-70" value="EP a disponibilizar" style="swimlane;fontStyle=0;childLayout=stackLayout;horizontal=1;startSize=30;horizontalStack=0;resizeParent=1;resizeParentMax=0;resizeLast=0;collapsible=1;marginBottom=0;whiteSpace=wrap;html=1;" vertex="1" parent="2b4e8129b02d487f-2">
          <mxGeometry x="32" y="280" width="384" height="72" as="geometry" />
        </mxCell>
        <mxCell id="0bKL7lzvlcCsgMvsiAlR-71" value="- EP2 Creación de Informe de gastos desde Cocha" style="text;strokeColor=none;fillColor=none;align=left;verticalAlign=middle;spacingLeft=4;spacingRight=4;overflow=hidden;points=[[0,0.5],[1,0.5]];portConstraint=eastwest;rotatable=0;whiteSpace=wrap;html=1;" vertex="1" parent="0bKL7lzvlcCsgMvsiAlR-70">
          <mxGeometry y="30" width="384" height="18" as="geometry" />
        </mxCell>
        <mxCell id="0bKL7lzvlcCsgMvsiAlR-72" value="- EP3 ? Disponer un get para obtener el status del informe" style="text;strokeColor=none;fillColor=none;align=left;verticalAlign=middle;spacingLeft=4;spacingRight=4;overflow=hidden;points=[[0,0.5],[1,0.5]];portConstraint=eastwest;rotatable=0;whiteSpace=wrap;html=1;" vertex="1" parent="0bKL7lzvlcCsgMvsiAlR-70">
          <mxGeometry y="48" width="384" height="24" as="geometry" />
        </mxCell>
        <mxCell id="2b4e8129b02d487f-5" value="Inicio" style="ellipse;whiteSpace=wrap;html=1;rounded=0;shadow=0;labelBackgroundColor=none;strokeWidth=1;fontFamily=Verdana;fontSize=8;align=center;" parent="2b4e8129b02d487f-2" vertex="1">
          <mxGeometry x="96" y="65.00999999999999" width="28" height="30" as="geometry" />
        </mxCell>
        <mxCell id="0bKL7lzvlcCsgMvsiAlR-26" style="edgeStyle=none;curved=1;rounded=0;orthogonalLoop=1;jettySize=auto;html=1;exitX=1;exitY=0.5;exitDx=0;exitDy=0;fontSize=12;startSize=8;endSize=8;" edge="1" parent="2b4e8129b02d487f-2" source="2b4e8129b02d487f-5">
          <mxGeometry relative="1" as="geometry">
            <mxPoint x="124" y="170.89" as="sourcePoint" />
            <mxPoint x="168" y="80" as="targetPoint" />
          </mxGeometry>
        </mxCell>
        <mxCell id="0bKL7lzvlcCsgMvsiAlR-85" value="" style="edgeStyle=none;curved=1;rounded=0;orthogonalLoop=1;jettySize=auto;html=1;fontSize=12;startSize=8;endSize=8;" edge="1" parent="2b4e8129b02d487f-2" source="0bKL7lzvlcCsgMvsiAlR-83" target="0bKL7lzvlcCsgMvsiAlR-84">
          <mxGeometry relative="1" as="geometry" />
        </mxCell>
        <mxCell id="0bKL7lzvlcCsgMvsiAlR-153" value="Si" style="edgeLabel;html=1;align=center;verticalAlign=middle;resizable=0;points=[];fontSize=12;" vertex="1" connectable="0" parent="0bKL7lzvlcCsgMvsiAlR-85">
          <mxGeometry x="-0.1772" y="-2" relative="1" as="geometry">
            <mxPoint as="offset" />
          </mxGeometry>
        </mxCell>
        <mxCell id="0bKL7lzvlcCsgMvsiAlR-87" value="" style="edgeStyle=none;curved=1;rounded=0;orthogonalLoop=1;jettySize=auto;html=1;fontSize=12;startSize=8;endSize=8;" edge="1" parent="2b4e8129b02d487f-2" source="0bKL7lzvlcCsgMvsiAlR-83" target="0bKL7lzvlcCsgMvsiAlR-86">
          <mxGeometry relative="1" as="geometry" />
        </mxCell>
        <mxCell id="0bKL7lzvlcCsgMvsiAlR-88" value="No" style="edgeLabel;html=1;align=center;verticalAlign=middle;resizable=0;points=[];fontSize=12;" vertex="1" connectable="0" parent="0bKL7lzvlcCsgMvsiAlR-87">
          <mxGeometry x="-0.2023" y="-1" relative="1" as="geometry">
            <mxPoint as="offset" />
          </mxGeometry>
        </mxCell>
        <mxCell id="0bKL7lzvlcCsgMvsiAlR-83" value="Usuario con política y compañia única?" style="rhombus;whiteSpace=wrap;html=1;fontSize=8;fontFamily=Verdana;rounded=1;shadow=0;labelBackgroundColor=none;strokeWidth=1;arcSize=16;" vertex="1" parent="2b4e8129b02d487f-2">
          <mxGeometry x="526" y="40" width="108" height="80" as="geometry" />
        </mxCell>
        <mxCell id="0bKL7lzvlcCsgMvsiAlR-114" style="edgeStyle=none;curved=1;rounded=0;orthogonalLoop=1;jettySize=auto;html=1;exitX=1;exitY=1;exitDx=0;exitDy=0;fontSize=12;startSize=8;endSize=8;entryX=0.5;entryY=0;entryDx=0;entryDy=0;" edge="1" parent="2b4e8129b02d487f-2" source="0bKL7lzvlcCsgMvsiAlR-84" target="0bKL7lzvlcCsgMvsiAlR-115">
          <mxGeometry relative="1" as="geometry">
            <mxPoint x="832.304347826087" y="167.99" as="targetPoint" />
          </mxGeometry>
        </mxCell>
        <mxCell id="0bKL7lzvlcCsgMvsiAlR-84" value="Se crea el Informe de Gastos con el detalle del viaje" style="whiteSpace=wrap;html=1;fontSize=8;fontFamily=Verdana;rounded=1;shadow=0;labelBackgroundColor=none;strokeWidth=1;arcSize=0;" vertex="1" parent="2b4e8129b02d487f-2">
          <mxGeometry x="712" y="49.13" width="120" height="60" as="geometry" />
        </mxCell>
        <mxCell id="0bKL7lzvlcCsgMvsiAlR-92" value="" style="edgeStyle=none;curved=1;rounded=0;orthogonalLoop=1;jettySize=auto;html=1;fontSize=12;startSize=8;endSize=8;" edge="1" parent="2b4e8129b02d487f-2" source="0bKL7lzvlcCsgMvsiAlR-86" target="0bKL7lzvlcCsgMvsiAlR-91">
          <mxGeometry relative="1" as="geometry" />
        </mxCell>
        <mxCell id="0bKL7lzvlcCsgMvsiAlR-86" value="Se crea un viaje en el inbox del usuario" style="whiteSpace=wrap;html=1;fontSize=8;fontFamily=Verdana;rounded=1;shadow=0;labelBackgroundColor=none;strokeWidth=1;arcSize=0;" vertex="1" parent="2b4e8129b02d487f-2">
          <mxGeometry x="520" y="168" width="120" height="60" as="geometry" />
        </mxCell>
        <mxCell id="0bKL7lzvlcCsgMvsiAlR-93" style="edgeStyle=none;curved=1;rounded=0;orthogonalLoop=1;jettySize=auto;html=1;exitX=1;exitY=0.5;exitDx=0;exitDy=0;entryX=0.5;entryY=1;entryDx=0;entryDy=0;fontSize=12;startSize=8;endSize=8;" edge="1" parent="2b4e8129b02d487f-2" source="0bKL7lzvlcCsgMvsiAlR-91" target="0bKL7lzvlcCsgMvsiAlR-84">
          <mxGeometry relative="1" as="geometry">
            <Array as="points">
              <mxPoint x="752" y="295.99" />
              <mxPoint x="772" y="279.99" />
              <mxPoint x="772" y="247.99" />
            </Array>
          </mxGeometry>
        </mxCell>
        <mxCell id="0bKL7lzvlcCsgMvsiAlR-91" value="Usuario selecciona&amp;nbsp;&lt;div&gt;desde el inbox&amp;nbsp;&lt;/div&gt;&lt;div&gt;un viaje&amp;nbsp;&lt;/div&gt;" style="shape=parallelogram;perimeter=parallelogramPerimeter;whiteSpace=wrap;html=1;fixedSize=1;fontSize=8;fontFamily=Verdana;rounded=1;shadow=0;labelBackgroundColor=none;strokeWidth=1;arcSize=16;size=8;" vertex="1" parent="2b4e8129b02d487f-2">
          <mxGeometry x="536" y="255.99" width="104" height="60" as="geometry" />
        </mxCell>
        <mxCell id="0bKL7lzvlcCsgMvsiAlR-111" value="" style="edgeStyle=none;curved=1;rounded=0;orthogonalLoop=1;jettySize=auto;html=1;fontSize=12;startSize=8;endSize=8;exitX=0.853;exitY=0.008;exitDx=0;exitDy=0;exitPerimeter=0;entryX=0.5;entryY=1;entryDx=0;entryDy=0;" edge="1" parent="2b4e8129b02d487f-2" source="0bKL7lzvlcCsgMvsiAlR-108" target="0bKL7lzvlcCsgMvsiAlR-150">
          <mxGeometry relative="1" as="geometry">
            <mxPoint x="996" y="110.88499999999999" as="targetPoint" />
          </mxGeometry>
        </mxCell>
        <mxCell id="0bKL7lzvlcCsgMvsiAlR-105" value="Flujo de informe" style="swimlane;childLayout=stackLayout;horizontal=1;fillColor=none;horizontalStack=1;resizeParent=1;resizeParentMax=0;resizeLast=0;collapsible=0;strokeColor=none;stackBorder=10;stackSpacing=-12;resizable=1;align=center;points=[];whiteSpace=wrap;html=1;" vertex="1" parent="2b4e8129b02d487f-2">
          <mxGeometry x="848" y="219.98000000000002" width="296" height="96.01" as="geometry" />
        </mxCell>
        <mxCell id="0bKL7lzvlcCsgMvsiAlR-106" value="Envío" style="shape=step;perimeter=stepPerimeter;fixedSize=1;points=[];whiteSpace=wrap;html=1;size=14;" vertex="1" parent="0bKL7lzvlcCsgMvsiAlR-105">
          <mxGeometry x="10" y="33" width="100" height="53.010000000000005" as="geometry" />
        </mxCell>
        <mxCell id="0bKL7lzvlcCsgMvsiAlR-107" value="Revisión" style="shape=step;perimeter=stepPerimeter;fixedSize=1;points=[];whiteSpace=wrap;html=1;size=14;" vertex="1" parent="0bKL7lzvlcCsgMvsiAlR-105">
          <mxGeometry x="98" y="33" width="100" height="53.010000000000005" as="geometry" />
        </mxCell>
        <mxCell id="0bKL7lzvlcCsgMvsiAlR-108" value="Cierre" style="shape=step;perimeter=stepPerimeter;fixedSize=1;points=[];whiteSpace=wrap;html=1;size=14;" vertex="1" parent="0bKL7lzvlcCsgMvsiAlR-105">
          <mxGeometry x="186" y="33" width="100" height="53.010000000000005" as="geometry" />
        </mxCell>
        <mxCell id="0bKL7lzvlcCsgMvsiAlR-116" value="" style="edgeStyle=none;curved=1;rounded=0;orthogonalLoop=1;jettySize=auto;html=1;fontSize=12;startSize=8;endSize=8;" edge="1" parent="2b4e8129b02d487f-2" source="0bKL7lzvlcCsgMvsiAlR-115" target="0bKL7lzvlcCsgMvsiAlR-106">
          <mxGeometry relative="1" as="geometry" />
        </mxCell>
        <mxCell id="0bKL7lzvlcCsgMvsiAlR-115" value="Usuario agrega gastos al informe y lo envía al proceso de revisión" style="whiteSpace=wrap;html=1;rounded=1;arcSize=0;fontSize=10;" vertex="1" parent="2b4e8129b02d487f-2">
          <mxGeometry x="808" y="154" width="120" height="54.01" as="geometry" />
        </mxCell>
        <mxCell id="0bKL7lzvlcCsgMvsiAlR-150" value="Informe Cambia de status&lt;div&gt;( Disponibilizar el Informe link público?)&lt;/div&gt;" style="whiteSpace=wrap;html=1;fontSize=8;fontFamily=Verdana;rounded=1;shadow=0;labelBackgroundColor=none;strokeWidth=1;arcSize=0;" vertex="1" parent="2b4e8129b02d487f-2">
          <mxGeometry x="1072" y="50.879999999999995" width="120" height="60" as="geometry" />
        </mxCell>
        <mxCell id="0bKL7lzvlcCsgMvsiAlR-152" value="" style="edgeStyle=none;curved=1;rounded=0;orthogonalLoop=1;jettySize=auto;html=1;fontSize=12;startSize=8;endSize=8;" edge="1" parent="2b4e8129b02d487f-1" source="0bKL7lzvlcCsgMvsiAlR-150" target="0bKL7lzvlcCsgMvsiAlR-151">
          <mxGeometry relative="1" as="geometry" />
        </mxCell>
      </root>
    </mxGraphModel>
  </diagram>
</mxfile>
